<svg width="16" height="16" viewBox="0 0 16 16" fill="none" xmlns="http://www.w3.org/2000/svg">
<path d="M2.99592 5.30666C3.47158 7.16165 4.43695 8.85474 5.79106 10.2089C7.14517 11.563 8.83827 12.5283 10.6933 13.004C12.1206 13.3673 13.3333 12.14 13.3333 10.6667V10C13.3333 9.632 13.0339 9.33666 12.6679 9.3C12.061 9.23966 11.4652 9.09633 10.8973 8.874L9.88392 9.88733C8.234 9.09639 6.90353 7.76591 6.11258 6.116L7.12592 5.10266C6.90336 4.53474 6.7598 3.93896 6.69925 3.332C6.66325 2.96533 6.36792 2.66666 5.99992 2.66666H5.33325C3.85992 2.66666 2.63258 3.87933 2.99592 5.30666Z" stroke="#9CAEBF" stroke-linecap="round" stroke-linejoin="round"/>
</svg>
