<svg width="16" height="16" viewBox="0 0 16 16" fill="none" xmlns="http://www.w3.org/2000/svg">
<path d="M4.20011 4.59997L3.46932 5.08776C2.94493 5.43696 2.68273 5.61156 2.54053 5.87795C2.39833 6.14495 2.39953 6.45815 2.40193 7.08394C2.40433 7.83873 2.41153 8.60672 2.43073 9.38431C2.47693 11.2293 2.49973 12.1515 3.17832 12.8295C3.85632 13.5075 4.7911 13.5315 6.66068 13.5783C7.82029 13.6073 8.98043 13.6073 10.14 13.5783C12.0096 13.5315 12.9444 13.5081 13.6224 12.8295C14.3004 12.1515 14.3238 11.2293 14.37 9.38431C14.3892 8.60672 14.3964 7.83873 14.3988 7.08454C14.4006 6.45814 14.4018 6.14495 14.2596 5.87855C14.118 5.61156 13.8558 5.43696 13.3314 5.08776L12.6 4.59997" stroke="#9CAEBF" stroke-linecap="round" stroke-linejoin="round"/>
<path d="M2.3999 6.39994L6.54765 8.88871C7.45004 9.4299 7.90123 9.6999 8.39983 9.6999C8.89842 9.6999 9.34962 9.4299 10.252 8.88811L14.3998 6.39994" stroke="#9CAEBF" stroke-linecap="round" stroke-linejoin="round"/>
<path d="M4.19995 7.59992V3.99997C4.19995 2.86838 4.19995 2.30319 4.55155 1.95159C4.90314 1.6 5.46834 1.6 6.59992 1.6H10.1999C11.3315 1.6 11.8967 1.6 12.2483 1.95159C12.5998 2.30319 12.5998 2.86838 12.5998 3.99997V7.59992M7.19991 6.39994H9.59989M7.19991 3.99997H9.59989" stroke="#9CAEBF" stroke-linecap="round" stroke-linejoin="round"/>
</svg>
