<svg width="109" height="109" viewBox="0 0 109 109" fill="none" xmlns="http://www.w3.org/2000/svg">
<path d="M54.7501 3.35715C54.7691 2.05851 55.8381 1.01581 57.1346 1.0919C66.5398 1.64383 75.6478 4.6712 83.5274 9.88629C92.0617 15.5347 98.7969 23.5124 102.934 32.8732C107.071 42.234 108.436 52.5849 106.868 62.6983C105.42 72.0358 101.527 80.8089 95.6043 88.1353C94.7877 89.1453 93.2971 89.2339 92.3239 88.3737L75.805 73.773C74.8319 72.9128 74.7496 71.4323 75.521 70.3874C78.0795 66.9216 79.7704 62.8789 80.4341 58.5991C81.2182 53.5425 80.5355 48.367 78.467 43.6866C76.3984 39.0062 73.0309 35.0173 68.7637 32.1931C65.1521 29.8028 61.0244 28.3317 56.7392 27.8906C55.4472 27.7576 54.4077 26.7001 54.4268 25.4015L54.7501 3.35715Z" fill="url(#paint0_linear_13_100)" stroke="white" stroke-width="1.17582"/>
<path d="M92.3223 88.3756C93.2954 89.2358 93.3906 90.7259 92.4885 91.6603C86.8258 97.5255 79.8894 102.027 72.2037 104.808C63.7798 107.856 54.7254 108.74 45.8711 107.379C37.0167 106.018 28.6459 102.455 21.5265 97.0173C14.4072 91.5798 8.76719 84.4415 5.12399 76.2574C1.48079 68.0733 -0.0489843 59.1054 0.674998 50.1763C1.39898 41.2473 4.35354 32.6429 9.26764 25.1527C14.1817 17.6624 20.898 11.526 28.8004 7.30645C36.0104 3.4566 43.9971 1.31483 52.1449 1.03217C53.4429 0.987136 54.4865 2.05512 54.4744 3.35385L54.2699 25.3996C54.2579 26.6983 53.1933 27.7306 51.8986 27.8327C48.2334 28.1215 44.6582 29.1636 41.4002 30.9032C37.449 33.013 34.0909 36.0812 31.6338 39.8263C29.1768 43.5715 27.6995 47.8736 27.3375 52.3382C26.9755 56.8027 27.7404 61.2867 29.562 65.3787C31.3836 69.4708 34.2036 73.0399 37.7633 75.7587C41.3229 78.4774 45.5084 80.2588 49.9355 80.9394C54.3627 81.62 58.8899 81.178 63.1018 79.6539C66.5748 78.3972 69.7418 76.438 72.4092 73.9078C73.3515 73.014 74.831 72.9138 75.8041 73.774L92.3223 88.3756Z" fill="#E6ECF1" stroke="white" stroke-width="0.713333"/>
<path d="M44.791 60H43.1777V53.5674C43.1777 53.3532 43.18 53.139 43.1846 52.9248C43.1891 52.7106 43.1937 52.501 43.1982 52.2959C43.2074 52.0908 43.2188 51.8949 43.2324 51.708C43.1367 51.8128 43.0182 51.9268 42.877 52.0498C42.7402 52.1729 42.5944 52.3005 42.4395 52.4326L41.291 53.3486L40.4844 52.3301L43.4512 50.0059H44.791V60ZM54.8467 54.9961C54.8467 55.8027 54.7829 56.5251 54.6553 57.1631C54.5322 57.7965 54.3363 58.3343 54.0674 58.7764C53.7985 59.2184 53.4476 59.5557 53.0146 59.7881C52.5817 60.0205 52.0576 60.1367 51.4424 60.1367C50.6722 60.1367 50.0365 59.9339 49.5352 59.5283C49.0339 59.1182 48.6624 58.5303 48.4209 57.7646C48.1794 56.9945 48.0586 56.0716 48.0586 54.9961C48.0586 53.9206 48.168 53 48.3867 52.2344C48.61 51.4642 48.9701 50.874 49.4668 50.4639C49.9635 50.0537 50.6221 49.8486 51.4424 49.8486C52.2171 49.8486 52.8551 50.0537 53.3564 50.4639C53.8623 50.8695 54.236 51.4574 54.4775 52.2275C54.7236 52.9932 54.8467 53.916 54.8467 54.9961ZM49.6787 54.9961C49.6787 55.8392 49.7334 56.5433 49.8428 57.1084C49.9567 57.6735 50.1436 58.0973 50.4033 58.3799C50.6631 58.6579 51.0094 58.7969 51.4424 58.7969C51.8753 58.7969 52.2217 58.6579 52.4814 58.3799C52.7412 58.1019 52.9281 57.6803 53.042 57.1152C53.1605 56.5501 53.2197 55.8438 53.2197 54.9961C53.2197 54.1576 53.1628 53.4557 53.0488 52.8906C52.9349 52.3255 52.748 51.9017 52.4883 51.6191C52.2285 51.332 51.8799 51.1885 51.4424 51.1885C51.0049 51.1885 50.6562 51.332 50.3965 51.6191C50.1413 51.9017 49.9567 52.3255 49.8428 52.8906C49.7334 53.4557 49.6787 54.1576 49.6787 54.9961ZM58.2236 49.8623C58.9574 49.8623 59.5133 50.1357 59.8916 50.6826C60.2699 51.2249 60.459 51.9928 60.459 52.9863C60.459 53.9753 60.2767 54.7477 59.9121 55.3037C59.5521 55.8597 58.9893 56.1377 58.2236 56.1377C57.5081 56.1377 56.9635 55.8597 56.5898 55.3037C56.2161 54.7477 56.0293 53.9753 56.0293 52.9863C56.0293 51.9928 56.2048 51.2249 56.5557 50.6826C56.9111 50.1357 57.4671 49.8623 58.2236 49.8623ZM58.2305 50.9834C57.9342 50.9834 57.7155 51.1497 57.5742 51.4824C57.4375 51.8151 57.3691 52.3187 57.3691 52.9932C57.3691 53.6631 57.4375 54.1689 57.5742 54.5107C57.7155 54.848 57.9342 55.0166 58.2305 55.0166C58.5312 55.0166 58.7546 54.848 58.9004 54.5107C59.0508 54.1735 59.126 53.6676 59.126 52.9932C59.126 52.3232 59.0531 51.8219 58.9072 51.4893C58.7614 51.152 58.5358 50.9834 58.2305 50.9834ZM64.9365 50.0059L59.3926 60H58.0732L63.6172 50.0059H64.9365ZM64.752 53.8613C65.4857 53.8613 66.0417 54.1348 66.4199 54.6816C66.8027 55.224 66.9941 55.9919 66.9941 56.9854C66.9941 57.9697 66.8118 58.7399 66.4473 59.2959C66.0872 59.8519 65.5221 60.1299 64.752 60.1299C64.0365 60.1299 63.4919 59.8519 63.1182 59.2959C62.7445 58.7399 62.5576 57.9697 62.5576 56.9854C62.5576 55.9919 62.7331 55.224 63.084 54.6816C63.4395 54.1348 63.9954 53.8613 64.752 53.8613ZM64.7588 54.9824C64.4626 54.9824 64.2438 55.1488 64.1025 55.4814C63.9658 55.8141 63.8975 56.3177 63.8975 56.9922C63.8975 57.6621 63.9658 58.168 64.1025 58.5098C64.2438 58.847 64.4626 59.0156 64.7588 59.0156C65.0641 59.0156 65.2897 58.8493 65.4355 58.5166C65.5814 58.1794 65.6543 57.6712 65.6543 56.9922C65.6543 56.3223 65.5814 55.821 65.4355 55.4883C65.2897 55.151 65.0641 54.9824 64.7588 54.9824Z" fill="#F44A51"/>
<defs>
<linearGradient id="paint0_linear_13_100" x1="54.3204" y1="14.7755" x2="90.2006" y2="90.0599" gradientUnits="userSpaceOnUse">
<stop stop-color="#002C57"/>
<stop offset="1" stop-color="#16487A"/>
</linearGradient>
</defs>
</svg>
