<svg width="110" height="116" viewBox="0 0 110 116" fill="none" xmlns="http://www.w3.org/2000/svg">
<path d="M55 3.35165C55 2.05287 56.0535 0.994606 57.3511 1.05167C67.1079 1.48075 76.5778 4.57394 84.723 10.0164C93.521 15.895 100.378 24.2506 104.428 34.0264C108.477 43.8023 109.536 54.5593 107.472 64.9373C105.561 74.5452 101.052 83.4287 94.4561 90.6312C93.579 91.5891 92.0857 91.5857 91.1673 90.6674L75.578 75.078C74.6596 74.1596 74.6686 72.6768 75.5028 71.6813C78.3799 68.2481 80.3572 64.1365 81.236 59.7187C82.2682 54.5297 81.7384 49.1511 79.7138 44.2632C77.6891 39.3753 74.2605 35.1975 69.8615 32.2582C66.1162 29.7557 61.8107 28.2466 57.3487 27.8533C56.0549 27.7393 55 26.6971 55 25.3984V3.35165Z" fill="#002C57" stroke="white" stroke-width="1.17582"/>
<path d="M55 105.648C55 106.947 53.9465 108.005 52.649 107.948C44.8562 107.606 37.232 105.563 30.3119 101.963C29.1596 101.364 28.7764 99.9205 29.4258 98.7958L40.4492 79.7028C41.0986 78.578 42.5332 78.2029 43.7107 78.7511C46.5289 80.063 49.5546 80.8738 52.6513 81.1467C53.9451 81.2607 55 82.3029 55 83.6016L55 105.648Z" fill="#EDF0F7" stroke="white" stroke-width="1.17582"/>
<path d="M29.4258 98.7958C28.7764 99.9205 27.335 100.31 26.2398 99.6121C19.0023 94.998 12.9707 88.7032 8.66764 81.25C4.36454 73.7968 1.92881 65.4259 1.55167 56.851C1.49461 55.5535 2.55287 54.5 3.85165 54.5H25.8984C27.1971 54.5 28.2393 55.5549 28.3533 56.8487C28.6949 60.7245 29.879 64.4891 31.8338 67.875C33.7887 71.2609 36.4569 74.1686 39.6426 76.4024C40.706 77.148 41.0986 78.578 40.4492 79.7028L29.4258 98.7958Z" fill="#EDF0F7" stroke="white" stroke-width="1.17582"/>
<path d="M3.85165 54.5C2.55287 54.5 1.49461 53.4466 1.55168 52.1491C1.82539 45.9261 3.18411 39.7924 5.57245 34.0264C7.96079 28.2605 11.3372 22.9625 15.544 18.3687C16.4211 17.4108 17.9143 17.4143 18.8327 18.3326L34.422 33.922C35.3404 34.8404 35.3314 36.3232 34.4972 37.3187C32.7512 39.4022 31.33 41.7433 30.2862 44.2632C29.2424 46.7831 28.592 49.4435 28.3533 52.1514C28.2393 53.4451 27.1971 54.5 25.8984 54.5H3.85165Z" fill="#EDF0F7" stroke="white" stroke-width="1.17582"/>
<path d="M18.8327 18.3327C17.9143 17.4143 17.9109 15.9211 18.8687 15.044C23.4625 10.8372 28.7605 7.46078 34.5264 5.07245C40.2924 2.68411 46.4261 1.32539 52.6491 1.05168C53.9466 0.994606 55 2.05287 55 3.35165V25.3984C55 26.6971 53.9451 27.7393 52.6514 27.8533C49.9435 28.092 47.2831 28.7424 44.7632 29.7862C42.2433 30.83 39.9022 32.2512 37.8187 33.9972C36.8232 34.8314 35.3404 34.8404 34.422 33.922L18.8327 18.3327Z" fill="#EDF0F7" stroke="white" stroke-width="1.17582"/>
<g filter="url(#filter0_d_13_24)">
<path d="M91.1673 90.6674C92.0857 91.5857 92.089 93.0791 91.1311 93.9563C81.8652 102.442 69.9035 107.397 57.3512 107.948C56.0537 108.005 55 106.947 55 105.648V83.6016C55 82.3029 56.0551 81.2607 57.3488 81.1468C62.8045 80.6661 67.9836 78.5208 72.1812 75.003C73.1767 74.1688 74.6596 74.1596 75.578 75.078L91.1673 90.6674Z" fill="url(#paint0_linear_13_24)"/>
<path d="M91.1673 90.6674C92.0857 91.5857 92.089 93.0791 91.1311 93.9563C81.8652 102.442 69.9035 107.397 57.3512 107.948C56.0537 108.005 55 106.947 55 105.648V83.6016C55 82.3029 56.0551 81.2607 57.3488 81.1468C62.8045 80.6661 67.9836 78.5208 72.1812 75.003C73.1767 74.1688 74.6596 74.1596 75.578 75.078L91.1673 90.6674Z" stroke="white" stroke-width="0.713333"/>
</g>
<defs>
<filter id="filter0_d_13_24" x="47.5954" y="66.9785" width="51.662" height="48.3767" filterUnits="userSpaceOnUse" color-interpolation-filters="sRGB">
<feFlood flood-opacity="0" result="BackgroundImageFix"/>
<feColorMatrix in="SourceAlpha" type="matrix" values="0 0 0 0 0 0 0 0 0 0 0 0 0 0 0 0 0 0 127 0" result="hardAlpha"/>
<feMorphology radius="2.56287" operator="dilate" in="SourceAlpha" result="effect1_dropShadow_13_24"/>
<feOffset/>
<feGaussianBlur stdDeviation="2.24251"/>
<feComposite in2="hardAlpha" operator="out"/>
<feColorMatrix type="matrix" values="0 0 0 0 0.956863 0 0 0 0 0.290196 0 0 0 0 0.317647 0 0 0 0.2 0"/>
<feBlend mode="normal" in2="BackgroundImageFix" result="effect1_dropShadow_13_24"/>
<feBlend mode="normal" in="SourceGraphic" in2="effect1_dropShadow_13_24" result="shape"/>
</filter>
<linearGradient id="paint0_linear_13_24" x1="56.431" y1="101.01" x2="88.4881" y2="88.7201" gradientUnits="userSpaceOnUse">
<stop stop-color="#F44A51"/>
<stop offset="1" stop-color="#D5464B"/>
</linearGradient>
</defs>
</svg>
