<svg width="108" height="109" viewBox="0 0 108 109" fill="none" xmlns="http://www.w3.org/2000/svg">
<path d="M54.7501 3.35715C54.7691 2.05851 55.838 1.01581 57.1345 1.0919C64.1649 1.5045 71.0528 3.3017 77.3997 6.38865C83.7467 9.47561 89.4131 13.7844 94.0782 19.0601C94.9385 20.033 94.7782 21.5176 93.7684 22.3343L76.6268 36.1988C75.617 37.0156 74.1434 36.8508 73.2411 35.9166C71.071 33.6697 68.5198 31.8159 65.6999 30.4443C62.8799 29.0728 59.8464 28.2105 56.7392 27.8906C55.4472 27.7576 54.4077 26.7001 54.4268 25.4015L54.7501 3.35715Z" fill="url(#paint0_linear_13_85)" stroke="white" stroke-width="1.17582"/>
<path d="M93.6094 22.1387C94.6151 21.317 96.1012 21.4632 96.8779 22.5041C103.669 31.6051 107.402 42.651 107.498 54.047C107.601 66.2283 103.544 78.08 95.9978 87.6427C88.4513 97.2054 77.8674 103.906 65.9958 106.638C54.1243 109.369 41.6761 107.967 30.7093 102.664C19.7425 97.361 10.9139 88.474 5.68318 77.4725C0.452446 66.4709 -0.867182 54.0137 1.94247 42.1605C4.75213 30.3072 11.5228 19.7677 21.1351 12.2845C30.1277 5.28376 41.1035 1.35015 52.4544 1.0223C53.7527 0.984805 54.7901 2.05882 54.7705 3.35745L54.4384 25.4017C54.4188 26.7003 53.3483 27.7264 52.053 27.8209C46.7976 28.2044 41.753 30.1339 37.5675 33.3923C32.7614 37.1339 29.3761 42.4036 27.9712 48.3302C26.5664 54.2569 27.2262 60.4855 29.8416 65.9862C32.457 71.487 36.8712 75.9305 42.3546 78.5821C47.838 81.2337 54.0621 81.9346 59.9979 80.5689C65.9337 79.2032 71.2257 75.8527 74.9989 71.0714C78.7721 66.29 80.8006 60.3641 80.749 54.2735C80.7041 48.9695 79.0841 43.8171 76.1213 39.4596C75.391 38.3856 75.5306 36.9093 76.5364 36.0875L93.6094 22.1387Z" fill="#E6ECF1" stroke="white" stroke-width="0.713333"/>
<path d="M45.291 60H43.6777V53.5674C43.6777 53.3532 43.68 53.139 43.6846 52.9248C43.6891 52.7106 43.6937 52.501 43.6982 52.2959C43.7074 52.0908 43.7188 51.8949 43.7324 51.708C43.6367 51.8128 43.5182 51.9268 43.377 52.0498C43.2402 52.1729 43.0944 52.3005 42.9395 52.4326L41.791 53.3486L40.9844 52.3301L43.9512 50.0059H45.291V60ZM55.3467 60H48.5791V58.79L51.1699 56.165C51.6712 55.6546 52.0837 55.2148 52.4072 54.8457C52.7308 54.472 52.9701 54.1188 53.125 53.7861C53.2845 53.4535 53.3643 53.0911 53.3643 52.6992C53.3643 52.2161 53.2253 51.8516 52.9473 51.6055C52.6693 51.3548 52.3024 51.2295 51.8467 51.2295C51.4137 51.2295 51.0127 51.3161 50.6436 51.4893C50.279 51.6579 49.9007 51.8994 49.5088 52.2139L48.627 51.1543C48.9049 50.9173 49.2012 50.7008 49.5156 50.5049C49.8346 50.3089 50.1901 50.154 50.582 50.04C50.974 49.9215 51.4206 49.8623 51.9219 49.8623C52.5553 49.8623 53.1022 49.9762 53.5625 50.2041C54.0228 50.4274 54.376 50.7396 54.6221 51.1406C54.8727 51.5417 54.998 52.0088 54.998 52.542C54.998 53.0798 54.891 53.5765 54.6768 54.0322C54.4626 54.488 54.1572 54.9391 53.7607 55.3857C53.3643 55.8278 52.8926 56.3086 52.3457 56.8281L50.6162 58.5166V58.5918H55.3467V60ZM58.7236 49.8623C59.4574 49.8623 60.0133 50.1357 60.3916 50.6826C60.7699 51.2249 60.959 51.9928 60.959 52.9863C60.959 53.9753 60.7767 54.7477 60.4121 55.3037C60.0521 55.8597 59.4893 56.1377 58.7236 56.1377C58.0081 56.1377 57.4635 55.8597 57.0898 55.3037C56.7161 54.7477 56.5293 53.9753 56.5293 52.9863C56.5293 51.9928 56.7048 51.2249 57.0557 50.6826C57.4111 50.1357 57.9671 49.8623 58.7236 49.8623ZM58.7305 50.9834C58.4342 50.9834 58.2155 51.1497 58.0742 51.4824C57.9375 51.8151 57.8691 52.3187 57.8691 52.9932C57.8691 53.6631 57.9375 54.1689 58.0742 54.5107C58.2155 54.848 58.4342 55.0166 58.7305 55.0166C59.0312 55.0166 59.2546 54.848 59.4004 54.5107C59.5508 54.1735 59.626 53.6676 59.626 52.9932C59.626 52.3232 59.5531 51.8219 59.4072 51.4893C59.2614 51.152 59.0358 50.9834 58.7305 50.9834ZM65.4365 50.0059L59.8926 60H58.5732L64.1172 50.0059H65.4365ZM65.252 53.8613C65.9857 53.8613 66.5417 54.1348 66.9199 54.6816C67.3027 55.224 67.4941 55.9919 67.4941 56.9854C67.4941 57.9697 67.3118 58.7399 66.9473 59.2959C66.5872 59.8519 66.0221 60.1299 65.252 60.1299C64.5365 60.1299 63.9919 59.8519 63.6182 59.2959C63.2445 58.7399 63.0576 57.9697 63.0576 56.9854C63.0576 55.9919 63.2331 55.224 63.584 54.6816C63.9395 54.1348 64.4954 53.8613 65.252 53.8613ZM65.2588 54.9824C64.9626 54.9824 64.7438 55.1488 64.6025 55.4814C64.4658 55.8141 64.3975 56.3177 64.3975 56.9922C64.3975 57.6621 64.4658 58.168 64.6025 58.5098C64.7438 58.847 64.9626 59.0156 65.2588 59.0156C65.5641 59.0156 65.7897 58.8493 65.9355 58.5166C66.0814 58.1794 66.1543 57.6712 66.1543 56.9922C66.1543 56.3223 66.0814 55.821 65.9355 55.4883C65.7897 55.151 65.5641 54.9824 65.2588 54.9824Z" fill="#F44A51"/>
<defs>
<linearGradient id="paint0_linear_13_85" x1="54.3204" y1="14.7755" x2="90.2006" y2="90.0599" gradientUnits="userSpaceOnUse">
<stop stop-color="#002C57"/>
<stop offset="1" stop-color="#16487A"/>
</linearGradient>
</defs>
</svg>
