<svg width="20" height="21" viewBox="0 0 20 21" fill="none" xmlns="http://www.w3.org/2000/svg">
<path d="M10 14.0714C9.72038 14.0715 9.44685 13.9896 9.21335 13.8357C8.97985 13.6818 8.79665 13.4627 8.68646 13.2057C8.45599 13.1513 8.22912 13.0826 8.00718 13L7.99503 12.9957C7.34331 12.7511 6.74176 12.3894 6.22003 11.9286C5.52103 11.3119 4.98348 10.5337 4.65425 9.66163C4.32503 8.78959 4.21414 7.85024 4.33123 6.92551C4.44833 6.00077 4.78987 5.11872 5.32606 4.35626C5.86226 3.59381 6.57683 2.97409 7.40747 2.55115C8.23812 2.12822 9.15962 1.9149 10.0916 1.92981C11.0236 1.94471 11.9378 2.18738 12.7545 2.63666C13.5712 3.08594 14.2656 3.72819 14.7772 4.5074C15.2887 5.28662 15.6019 6.17914 15.6893 7.10715C15.7172 7.40215 15.475 7.64286 15.1786 7.64286C14.8829 7.64286 14.6465 7.40215 14.6122 7.10786C14.5178 6.29593 14.2106 5.52331 13.7219 4.86812C13.2331 4.21292 12.5801 3.69838 11.8287 3.37649C11.0774 3.0546 10.2543 2.93679 9.44283 3.03495C8.63134 3.13311 7.86015 3.44378 7.20721 3.93554C6.55428 4.4273 6.04274 5.08273 5.72432 5.83556C5.40589 6.5884 5.29187 7.41196 5.39376 8.22299C5.49566 9.03402 5.80987 9.80377 6.30464 10.4544C6.7994 11.1051 7.45717 11.6136 8.21146 11.9286L8.24003 11.9407C8.38289 11.9993 8.52956 12.051 8.68003 12.0957C8.81763 11.7605 9.07751 11.49 9.40703 11.3392C9.73656 11.1883 10.1111 11.1684 10.4548 11.2833C10.7985 11.3983 11.0856 11.6396 11.2581 11.9583C11.4305 12.277 11.4754 12.6494 11.3836 13C11.3044 13.3067 11.1255 13.5784 10.8751 13.7724C10.6246 13.9663 10.3168 14.0715 10 14.0714ZM5.00003 13H5.83503C5.43568 12.6887 5.07204 12.3342 4.75075 11.9429C4.22912 12.004 3.74809 12.2545 3.39901 12.6469C3.04993 13.0393 2.85711 13.5462 2.85718 14.0714V14.5821C2.85718 17.2379 5.86432 19.0714 10 19.0714C14.1357 19.0714 17.1429 17.1371 17.1429 14.5821V14.0714C17.1429 13.5031 16.9171 12.9581 16.5153 12.5562C16.1134 12.1543 15.5684 11.9286 15 11.9286H12.3965C12.5 12.2758 12.5268 12.6414 12.475 13H15L15.1036 13.005C15.3686 13.0307 15.6145 13.1542 15.7934 13.3514C15.9724 13.5485 16.0715 13.8052 16.0715 14.0714V14.5821L16.0679 14.6971C15.9679 16.4971 13.5186 18 10 18C6.34932 18 3.92861 16.4921 3.92861 14.5821V14.0714L3.93361 13.9679C3.95934 13.7029 4.08281 13.457 4.27996 13.278C4.4771 13.0991 4.7338 13 5.00003 13ZM13.5715 7.64286C13.5716 8.28984 13.3959 8.92471 13.0633 9.47964C12.7307 10.0346 12.2535 10.4887 11.6829 10.7936C11.2225 10.3748 10.6224 10.1427 10 10.1429C10.3283 10.1429 10.6534 10.0782 10.9567 9.95256C11.2601 9.82692 11.5357 9.64277 11.7678 9.41063C11.9999 9.17848 12.1841 8.90288 12.3097 8.59957C12.4354 8.29626 12.5 7.97117 12.5 7.64286C12.5 7.31456 12.4354 6.98947 12.3097 6.68615C12.1841 6.38284 11.9999 6.10724 11.7678 5.87509C11.5357 5.64295 11.2601 5.4588 10.9567 5.33316C10.6534 5.20753 10.3283 5.14286 10 5.14286C9.33699 5.14286 8.70111 5.40625 8.23227 5.87509C7.76343 6.34393 7.50003 6.97982 7.50003 7.64286C7.50003 8.3059 7.76343 8.94179 8.23227 9.41063C8.70111 9.87947 9.33699 10.1429 10 10.1429C9.35146 10.1429 8.76146 10.39 8.31789 10.7943C7.74753 10.4897 7.27056 10.0359 6.93789 9.48143C6.65465 9.00956 6.4843 8.47861 6.44013 7.93003C6.39596 7.38145 6.47916 6.83009 6.68326 6.31897C6.88735 5.80786 7.2068 5.35083 7.61668 4.98356C8.02656 4.61629 8.51577 4.34871 9.04613 4.20171C9.57649 4.05472 10.1336 4.03228 10.6741 4.13616C11.2146 4.24003 11.7237 4.46741 12.1618 4.80053C12.5999 5.13366 12.9551 5.56352 13.1996 6.05657C13.4441 6.54962 13.5714 7.09251 13.5715 7.64286Z" fill="#9CAEBF"/>
</svg>
