<svg width="20" height="21" viewBox="0 0 20 21" fill="none" xmlns="http://www.w3.org/2000/svg">
<path d="M12.5 4.66669V6.33335M12.5 9.66669V11.3334M12.5 14.6667V16.3334M4.16667 4.66669C3.72464 4.66669 3.30072 4.84228 2.98816 5.15484C2.67559 5.4674 2.5 5.89133 2.5 6.33335V8.83335C2.94203 8.83335 3.36595 9.00895 3.67851 9.32151C3.99107 9.63407 4.16667 10.058 4.16667 10.5C4.16667 10.942 3.99107 11.366 3.67851 11.6785C3.36595 11.9911 2.94203 12.1667 2.5 12.1667V14.6667C2.5 15.1087 2.67559 15.5326 2.98816 15.8452C3.30072 16.1578 3.72464 16.3334 4.16667 16.3334H15.8333C16.2754 16.3334 16.6993 16.1578 17.0118 15.8452C17.3244 15.5326 17.5 15.1087 17.5 14.6667V12.1667C17.058 12.1667 16.634 11.9911 16.3215 11.6785C16.0089 11.366 15.8333 10.942 15.8333 10.5C15.8333 10.058 16.0089 9.63407 16.3215 9.32151C16.634 9.00895 17.058 8.83335 17.5 8.83335V6.33335C17.5 5.89133 17.3244 5.4674 17.0118 5.15484C16.6993 4.84228 16.2754 4.66669 15.8333 4.66669H4.16667Z" stroke="#9CAEBF" stroke-width="1.2" stroke-linecap="round" stroke-linejoin="round"/>
</svg>
