<svg width="20" height="21" viewBox="0 0 20 21" fill="none" xmlns="http://www.w3.org/2000/svg">
<path d="M7.40015 18.2083H15.6251C16.1777 18.2083 16.7076 17.9888 17.0983 17.5981C17.489 17.2074 17.7085 16.6775 17.7085 16.125V13.1C17.7041 12.5503 17.4826 12.0247 17.0924 11.6376C16.7022 11.2505 16.1748 11.0333 15.6251 11.0333H14.5668M9.48348 16.1083L14.5668 11.0167L16.1251 9.45832C16.3189 9.26551 16.4727 9.03632 16.5776 8.7839C16.6825 8.53149 16.7365 8.26084 16.7365 7.98749C16.7365 7.71414 16.6825 7.44349 16.5776 7.19108C16.4727 6.93867 16.3189 6.70947 16.1251 6.51666L13.9835 4.37499C13.7907 4.18123 13.5615 4.02748 13.3091 3.92256C13.0566 3.81765 12.786 3.76364 12.5126 3.76364C12.2393 3.76364 11.9686 3.81765 11.7162 3.92256C11.4638 4.02748 11.2346 4.18123 11.0418 4.37499L9.48348 5.93332" stroke="#9CAEBF" stroke-width="1.2" stroke-linecap="round" stroke-linejoin="round"/>
<path d="M7.40008 2.79166H4.37508C3.82255 2.79166 3.29264 3.01115 2.90194 3.40185C2.51124 3.79255 2.29175 4.32246 2.29175 4.87499V16.125C2.29175 16.6775 2.51124 17.2074 2.90194 17.5981C3.29264 17.9888 3.82255 18.2083 4.37508 18.2083H7.40008C7.95262 18.2083 8.48252 17.9888 8.87322 17.5981C9.26392 17.2074 9.48341 16.6775 9.48341 16.125V4.87499C9.48341 4.32246 9.26392 3.79255 8.87322 3.40185C8.48252 3.01115 7.95262 2.79166 7.40008 2.79166Z" stroke="#9CAEBF" stroke-width="1.2" stroke-linecap="round" stroke-linejoin="round"/>
<path d="M5.88766 15.995C6.0621 15.995 6.23483 15.9606 6.39599 15.8939C6.55715 15.8271 6.70359 15.7293 6.82693 15.6059C6.95028 15.4826 7.04812 15.3361 7.11488 15.175C7.18163 15.0138 7.21599 14.8411 7.21599 14.6667C7.21599 14.4922 7.18163 14.3195 7.11488 14.1583C7.04812 13.9972 6.95028 13.8507 6.82693 13.7274C6.70359 13.604 6.55715 13.5062 6.39599 13.4394C6.23483 13.3727 6.0621 13.3383 5.88766 13.3383C5.53536 13.3383 5.1975 13.4783 4.94839 13.7274C4.69928 13.9765 4.55933 14.3144 4.55933 14.6667C4.55933 15.0189 4.69928 15.3568 4.94839 15.6059C5.1975 15.855 5.53536 15.995 5.88766 15.995Z" stroke="#9CAEBF" stroke-width="1.2" stroke-linecap="round" stroke-linejoin="round"/>
</svg>
