<svg width="20" height="21" viewBox="0 0 20 21" fill="none" xmlns="http://www.w3.org/2000/svg">
<path d="M5.8335 12.1667L7.74433 10.2558C7.9006 10.0996 8.11253 10.0119 8.3335 10.0119C8.55447 10.0119 8.76639 10.0996 8.92266 10.2558L10.2443 11.5775C10.4006 11.7337 10.6125 11.8215 10.8335 11.8215C11.0545 11.8215 11.2664 11.7337 11.4227 11.5775L14.1668 8.83334M14.1668 8.83334V10.9167M14.1668 8.83334H12.0835" stroke="#9CAEBF" stroke-width="1.2" stroke-linecap="round" stroke-linejoin="round"/>
<path d="M18.3334 10.5C18.3334 14.4283 18.3334 16.3925 17.1126 17.6125C15.8934 18.8333 13.9284 18.8333 10.0001 18.8333C6.07175 18.8333 4.10758 18.8333 2.88675 17.6125C1.66675 16.3933 1.66675 14.4283 1.66675 10.5C1.66675 6.57167 1.66675 4.60751 2.88675 3.38667C4.10841 2.16667 6.07175 2.16667 10.0001 2.16667C13.9284 2.16667 15.8926 2.16667 17.1126 3.38667C17.9242 4.19834 18.1959 5.33917 18.2876 7.16667" stroke="#9CAEBF" stroke-width="1.2" stroke-linecap="round"/>
</svg>
