<svg width="20" height="21" viewBox="0 0 20 21" fill="none" xmlns="http://www.w3.org/2000/svg">
<path d="M17.4392 8.825C11.9309 8.06833 7.18091 12.1583 7.50008 17.5833M5.41675 7.16667C5.41675 7.60869 5.59234 8.03262 5.9049 8.34518C6.21746 8.65774 6.64139 8.83333 7.08341 8.83333C7.52544 8.83333 7.94937 8.65774 8.26193 8.34518C8.57449 8.03262 8.75008 7.60869 8.75008 7.16667C8.75008 6.72464 8.57449 6.30072 8.26193 5.98816C7.94937 5.67559 7.52544 5.5 7.08341 5.5C6.64139 5.5 6.21746 5.67559 5.9049 5.98816C5.59234 6.30072 5.41675 6.72464 5.41675 7.16667Z" stroke="#9CAEBF" stroke-width="1.2" stroke-linecap="round" stroke-linejoin="round"/>
<path d="M2.5 11.3883C4.81667 11.0675 6.89583 12.1867 8.02 13.9717" stroke="#9CAEBF" stroke-width="1.2" stroke-linecap="round" stroke-linejoin="round"/>
<path d="M2.5 8.33333C2.5 6.46667 2.5 5.53333 2.86333 4.82C3.18291 4.19282 3.69282 3.68291 4.32 3.36333C5.03333 3 5.96667 3 7.83333 3H12.1667C14.0333 3 14.9667 3 15.68 3.36333C16.3072 3.68291 16.8171 4.19282 17.1367 4.82C17.5 5.53333 17.5 6.46667 17.5 8.33333V12.6667C17.5 14.5333 17.5 15.4667 17.1367 16.18C16.8171 16.8072 16.3072 17.3171 15.68 17.6367C14.9667 18 14.0333 18 12.1667 18H7.83333C5.96667 18 5.03333 18 4.32 17.6367C3.69282 17.3171 3.18291 16.8072 2.86333 16.18C2.5 15.4667 2.5 14.5333 2.5 12.6667V8.33333Z" stroke="#9CAEBF" stroke-width="1.2" stroke-linecap="round" stroke-linejoin="round"/>
</svg>
