<svg width="20" height="21" viewBox="0 0 20 21" fill="none" xmlns="http://www.w3.org/2000/svg">
<path d="M16.25 9.14258V16.75C16.25 17.2473 16.0525 17.7242 15.7008 18.0758C15.3492 18.4275 14.8723 18.625 14.375 18.625H5.625C5.12772 18.625 4.65081 18.4275 4.29917 18.0758C3.94754 17.7242 3.75 17.2473 3.75 16.75V4.25C3.75 3.75272 3.94754 3.27581 4.29917 2.92417C4.65081 2.57254 5.12772 2.375 5.625 2.375H9.48242C9.81383 2.37505 10.1316 2.5067 10.366 2.74102L15.884 8.25898C16.1183 8.49335 16.2499 8.81117 16.25 9.14258Z" stroke="#9CAEBF" stroke-linejoin="round"/>
<path d="M10 2.6875V7.375C10 7.70652 10.1317 8.02446 10.3661 8.25888C10.6005 8.4933 10.9185 8.625 11.25 8.625H15.9375M6.875 11.75H13.125M6.875 14.875H13.125" stroke="#9CAEBF" stroke-linecap="round" stroke-linejoin="round"/>
</svg>
