<svg width="24" height="24" viewBox="0 0 24 24" fill="none" xmlns="http://www.w3.org/2000/svg">
<mask id="mask0_13_235" style="mask-type:luminance" maskUnits="userSpaceOnUse" x="0" y="1" width="23" height="22">
<path d="M11.9118 21.9265C13.2156 21.9281 14.5069 21.672 15.7114 21.1731C16.916 20.6741 18.0101 19.9421 18.9308 19.019C19.8539 18.0982 20.586 17.0042 21.0849 15.7996C21.5839 14.5951 21.8399 13.3038 21.8383 12C21.8399 10.6962 21.5839 9.40493 21.0849 8.20039C20.586 6.99584 19.8539 5.90175 18.9308 4.98099C18.0101 4.05791 16.916 3.32586 15.7114 2.8269C14.5069 2.32795 13.2156 2.07192 11.9118 2.07352C10.608 2.07192 9.31677 2.32795 8.11222 2.8269C6.90767 3.32586 5.81359 4.05791 4.89282 4.98099C3.96974 5.90175 3.23769 6.99584 2.73874 8.20039C2.23978 9.40493 1.98375 10.6962 1.98536 12C1.98375 13.3038 2.23978 14.5951 2.73874 15.7996C3.23769 17.0042 3.96974 18.0982 4.89282 19.019C5.81359 19.9421 6.90767 20.6741 8.11222 21.1731C9.31677 21.672 10.608 21.9281 11.9118 21.9265Z" fill="white" stroke="white" stroke-width="1.98529" stroke-linejoin="round"/>
<path d="M7.94116 12L10.9191 14.9779L16.875 9.02203" stroke="black" stroke-width="1.98529" stroke-linecap="round" stroke-linejoin="round"/>
</mask>
<g mask="url(#mask0_13_235)">
<path d="M0 0.0882263H23.8235V23.9118H0V0.0882263Z" fill="#9CAEBF"/>
</g>
</svg>
