<svg width="24" height="25" viewBox="0 0 24 25" fill="none" xmlns="http://www.w3.org/2000/svg">
<mask id="mask0_13_52" style="mask-type:luminance" maskUnits="userSpaceOnUse" x="1" y="1" width="22" height="23">
<path d="M12 22.4265C13.3038 22.4281 14.595 22.172 15.7996 21.6731C17.0041 21.1741 18.0982 20.4421 19.019 19.519C19.9421 18.5982 20.6741 17.5042 21.1731 16.2996C21.672 15.0951 21.928 13.8038 21.9264 12.5C21.928 11.1962 21.672 9.90493 21.1731 8.70039C20.6741 7.49584 19.9421 6.40175 19.019 5.48099C18.0982 4.55791 17.0041 3.82586 15.7996 3.3269C14.595 2.82795 13.3038 2.57192 12 2.57352C10.6962 2.57192 9.4049 2.82795 8.20035 3.3269C6.99581 3.82586 5.90172 4.55791 4.98096 5.48099C4.05788 6.40175 3.32583 7.49584 2.82687 8.70039C2.32791 9.90493 2.07189 11.1962 2.07349 12.5C2.07189 13.8038 2.32791 15.0951 2.82687 16.2996C3.32583 17.5042 4.05788 18.5982 4.98096 19.519C5.90172 20.4421 6.99581 21.1741 8.20035 21.6731C9.4049 22.172 10.6962 22.4281 12 22.4265Z" fill="white" stroke="white" stroke-width="1.98529" stroke-linejoin="round"/>
<path d="M8.0293 12.5L11.0072 15.4779L16.9631 9.52203" stroke="black" stroke-width="1.98529" stroke-linecap="round" stroke-linejoin="round"/>
</mask>
<g mask="url(#mask0_13_52)">
<path d="M0.0881348 0.588226H23.9117V24.4118H0.0881348V0.588226Z" fill="#3DBE41"/>
</g>
</svg>
