<svg width="134" height="50" viewBox="0 0 134 50" fill="none" xmlns="http://www.w3.org/2000/svg">
<path d="M55.5989 8.98269L48.4963 23.9074H51.5626L52.8455 21.0914H58.0707L59.2909 23.9074H62.8891L55.7866 8.9514H55.5989V8.98269ZM53.9093 18.7134L55.505 15.2091L57.0068 18.7134H53.9093Z" fill="#002C57"/>
<path d="M75.8712 9.54533H72.1792L68.8 17.6491L65.2018 9.54533H61.4785L68.6748 24.5952L75.8712 9.54533Z" fill="#002C57"/>
<path d="M89.0766 23.9074L81.9741 8.9514H81.8177L74.7151 23.9074H77.7814L79.0643 21.0914H84.2895L85.5097 23.9074H89.0766ZM80.0968 18.7134L81.6925 15.2091L83.2257 18.7134H80.0968Z" fill="#002C57"/>
<path d="M102.499 18.2129L91.4857 8.98271H91.3605V23.9074H94.5207L94.4581 15.4282L105.472 24.5019H105.566V9.54591H102.437L102.499 18.2129Z" fill="#002C57"/>
<path d="M112.262 23.9068H115.359V12.2674H119.208V9.54533H108.57V12.2674H112.262V23.9068Z" fill="#002C57"/>
<path d="M125.311 21.1847V18.0871H132.069V15.3337H125.311V12.2674H132.945V9.54533H122.182V23.9068H133.258V21.1847H125.311Z" fill="#002C57"/>
<path d="M59.2908 32.8557H51.7816V26.6918H48.4963V41.9607H51.7816V35.7655H59.2908V41.9607H62.5762V26.6918H59.2908V32.8557Z" fill="#002C57"/>
<path d="M80.4738 28.8506C79.6916 28.131 78.7529 27.5678 77.7204 27.1297C76.6879 26.723 75.5928 26.504 74.4038 26.504C73.2148 26.504 72.1197 26.723 71.0872 27.1297C70.0547 27.5365 69.1473 28.131 68.3651 28.8506C67.5829 29.5703 66.9571 30.415 66.5191 31.3537C66.081 32.2924 65.862 33.2936 65.862 34.3574C65.862 35.4212 66.081 36.4537 66.5191 37.3924C66.9571 38.3311 67.5829 39.1759 68.3651 39.8642C69.1473 40.5838 70.0547 41.147 71.0872 41.5225C72.1197 41.9293 73.2148 42.117 74.4038 42.117C75.5615 42.117 76.6879 41.9293 77.7204 41.5225C78.7529 41.1158 79.6603 40.5526 80.4738 39.8642C81.256 39.1446 81.8818 38.3311 82.3511 37.3924C82.7891 36.4537 83.0082 35.4525 83.0082 34.3574C83.0082 33.2936 82.7891 32.3236 82.3511 31.3537C81.8818 30.415 81.256 29.5703 80.4738 28.8506ZM79.191 36.2347C78.9406 36.8292 78.5652 37.3298 78.1271 37.7992C77.6578 38.2372 77.1259 38.6127 76.5314 38.8317C75.9056 39.082 75.2486 39.2071 74.5289 39.2071C73.778 39.2071 73.0897 39.082 72.4639 38.8317C71.8381 38.5814 71.2749 38.2372 70.8056 37.7992C70.3363 37.3611 69.9608 36.8292 69.6792 36.2347C69.4289 35.6402 69.2725 35.0145 69.2725 34.3261C69.2725 33.6378 69.3976 32.9807 69.6479 32.3862C69.8982 31.7917 70.2737 31.2598 70.743 30.8218C71.2124 30.3838 71.7443 30.0083 72.37 29.758C72.9958 29.5077 73.6529 29.3825 74.4038 29.3825C75.1234 29.3825 75.8118 29.5077 76.4376 29.758C77.0633 30.0083 77.5952 30.3525 78.0646 30.8218C78.5339 31.2598 78.8781 31.7917 79.1597 32.3862C79.41 32.9807 79.5664 33.6378 79.5664 34.3261C79.5977 35.0145 79.4726 35.6715 79.191 36.2347Z" fill="#002C57"/>
<path d="M94.8344 37.0489L86.3239 26.0666H86.2926V41.9612H89.484V35.1403L94.7405 41.7735H94.8031L100.247 34.671V41.9612H103.564V26.0666H103.501L94.8344 37.0489Z" fill="#002C57"/>
<path d="M111.197 35.7655H118.394V32.8557H111.197V29.6017H119.301V26.6918H107.881V41.9607H119.645V39.0508H111.197V35.7655Z" fill="#002C57"/>
<path d="M126.5 29.6642C126.906 29.4139 127.469 29.2574 128.189 29.2574C128.752 29.2574 129.378 29.3513 130.035 29.5703C130.692 29.7893 131.349 30.0396 131.975 30.3525L133.227 28.0372C132.57 27.6304 131.819 27.2862 130.974 27.0046C130.129 26.723 129.034 26.5666 127.688 26.5666C126.656 26.5979 125.749 26.8169 124.966 27.1924C124.184 27.5678 123.558 28.0997 123.12 28.7255C122.682 29.3826 122.463 30.1335 122.463 31.0409C122.463 31.7605 122.62 32.3863 122.901 32.8869C123.183 33.3875 123.59 33.8255 124.059 34.1384C124.528 34.4826 125.06 34.7642 125.592 35.0145C126.124 35.2648 126.656 35.4526 127.188 35.6403C127.626 35.7967 128.033 35.9845 128.408 36.1722C128.784 36.3912 129.065 36.6102 129.284 36.8605C129.503 37.1109 129.628 37.3924 129.628 37.7053C129.628 38.1434 129.503 38.4876 129.222 38.7379C128.971 38.9882 128.627 39.1759 128.22 39.2698C127.814 39.3636 127.407 39.4262 127.031 39.4262C126.625 39.4262 126.218 39.3636 125.749 39.2698C125.279 39.1446 124.81 38.9882 124.341 38.8004C123.871 38.6127 123.433 38.3624 123.058 38.1121L121.587 40.4587C122.182 40.8342 122.807 41.1471 123.433 41.3974C124.059 41.6477 124.716 41.8041 125.373 41.9293C126.03 42.0545 126.687 42.117 127.313 42.117C128.565 42.117 129.597 41.898 130.442 41.4913C131.287 41.0845 131.944 40.5526 132.382 39.8955C132.82 39.2385 133.039 38.5188 133.039 37.7366C133.039 37.017 132.914 36.3912 132.695 35.8906C132.476 35.39 132.163 34.9519 131.787 34.6391C131.412 34.2949 130.974 34.0133 130.504 33.7943C130.035 33.5752 129.535 33.3562 129.065 33.1998C128.533 33.012 128.033 32.8243 127.532 32.6053C127.031 32.3863 126.625 32.136 126.312 31.8544C125.999 31.5728 125.842 31.2599 125.842 30.8844C125.905 30.3212 126.093 29.9458 126.5 29.6642Z" fill="#002C57"/>
<path d="M6.47674 24.9056L22.2775 15.3V7.63431L0 21.3387V42.3647H12.0461V35.8566H6.47674V24.9056Z" fill="#002C57"/>
<path d="M37.5778 17.3339L22.2776 7.66571V0L44.0545 13.767V42.4586H32.6029V35.9819H37.5778V17.3339Z" fill="#002C57"/>
<path d="M22.3093 21.8097L11.9841 28.3177V35.8583L12.0466 35.9521L22.3093 29.4754L32.572 35.9521L32.6033 35.9208V28.3177L22.3093 21.8097Z" fill="#F44A51"/>
<path d="M22.3095 35.8263L11.9843 42.3656V49.9061L12.0468 50L22.3095 43.5233L32.5722 50L32.6034 49.9374V42.3343L22.3095 35.8263Z" fill="#F5C200"/>
</svg>
