<svg width="20" height="20" viewBox="0 0 20 20" fill="none" xmlns="http://www.w3.org/2000/svg">
<path d="M15.2092 2.08167C15.9009 2.08162 16.5665 2.34629 17.0694 2.82139C17.5722 3.29649 17.8742 3.94599 17.9133 4.63667L17.9175 4.79V14.7933C17.9175 15.5116 17.6322 16.2005 17.1242 16.7084C16.6163 17.2163 15.9275 17.5017 15.2092 17.5017H5.20917C4.51724 17.5019 3.85146 17.2373 3.34844 16.7622C2.84543 16.2871 2.54334 15.6375 2.50417 14.9467L2.5 14.7933V4.79C2.5 4.0717 2.78534 3.38283 3.29325 2.87492C3.80116 2.36701 4.49004 2.08167 5.20833 2.08167H15.2092ZM9.58333 7.915L3.75 7.91583V14.7933L3.75583 14.9267C3.78909 15.2889 3.95651 15.6256 4.22523 15.8707C4.49396 16.1159 4.84459 16.2517 5.20833 16.2517L9.58333 16.2508V7.915ZM16.6667 12.915L10.8333 12.9158V16.2508H15.2083C15.5951 16.2508 15.966 16.0972 16.2395 15.8237C16.513 15.5502 16.6667 15.1793 16.6667 14.7925V12.915ZM15.2092 3.33167L10.8333 3.33083V11.6667L16.6667 11.6658L16.6675 4.79083L16.6617 4.6575C16.6284 4.29528 16.461 3.95857 16.1923 3.71343C15.9235 3.46829 15.5729 3.33243 15.2092 3.3325M9.58333 3.33083L5.20833 3.33167L5.08917 3.33667C4.72442 3.36678 4.38432 3.53294 4.1364 3.80217C3.88848 4.0714 3.75085 4.42401 3.75083 4.79L3.75 6.66667H9.58333V3.33083Z" fill="white"/>
</svg>
