<svg width="20" height="20" viewBox="0 0 20 20" fill="none" xmlns="http://www.w3.org/2000/svg">
<path d="M9.99996 10H15.8333M15.8333 10L13.3333 12.5M15.8333 10L13.3333 7.5M15.8333 5V4.16667C15.8333 3.72464 15.6577 3.30072 15.3451 2.98816C15.0326 2.67559 14.6087 2.5 14.1666 2.5H5.83329C5.39127 2.5 4.96734 2.67559 4.65478 2.98816C4.34222 3.30072 4.16663 3.72464 4.16663 4.16667V15.8333C4.16663 16.2754 4.34222 16.6993 4.65478 17.0118C4.96734 17.3244 5.39127 17.5 5.83329 17.5H14.1666C14.6087 17.5 15.0326 17.3244 15.3451 17.0118C15.6577 16.6993 15.8333 16.2754 15.8333 15.8333V15" stroke="white" stroke-width="1.5" stroke-linecap="round" stroke-linejoin="round"/>
</svg>
