<svg width="20" height="20" viewBox="0 0 20 20" fill="none" xmlns="http://www.w3.org/2000/svg">
<path d="M10 13.5714C9.72038 13.5715 9.44685 13.4896 9.21335 13.3357C8.97985 13.1818 8.79665 12.9627 8.68646 12.7057C8.45599 12.6513 8.22912 12.5826 8.00718 12.5L7.99503 12.4957C7.34331 12.2511 6.74176 11.8894 6.22003 11.4286C5.52103 10.8119 4.98348 10.0337 4.65425 9.16163C4.32503 8.28959 4.21414 7.35024 4.33123 6.42551C4.44833 5.50077 4.78987 4.61872 5.32606 3.85626C5.86226 3.09381 6.57683 2.47409 7.40747 2.05115C8.23812 1.62822 9.15962 1.4149 10.0916 1.42981C11.0236 1.44471 11.9378 1.68738 12.7545 2.13666C13.5712 2.58594 14.2656 3.22819 14.7772 4.0074C15.2887 4.78662 15.6019 5.67914 15.6893 6.60715C15.7172 6.90215 15.475 7.14286 15.1786 7.14286C14.8829 7.14286 14.6465 6.90215 14.6122 6.60786C14.5178 5.79593 14.2106 5.02331 13.7219 4.36812C13.2331 3.71292 12.5801 3.19838 11.8287 2.87649C11.0774 2.5546 10.2543 2.43679 9.44283 2.53495C8.63134 2.63311 7.86015 2.94378 7.20721 3.43554C6.55428 3.9273 6.04274 4.58273 5.72432 5.33556C5.40589 6.0884 5.29187 6.91196 5.39376 7.72299C5.49566 8.53402 5.80987 9.30377 6.30464 9.95444C6.7994 10.6051 7.45717 11.1136 8.21146 11.4286L8.24003 11.4407C8.38289 11.4993 8.52956 11.551 8.68003 11.5957C8.81763 11.2605 9.07751 10.99 9.40703 10.8392C9.73656 10.6883 10.1111 10.6684 10.4548 10.7833C10.7985 10.8983 11.0856 11.1396 11.2581 11.4583C11.4305 11.777 11.4754 12.1494 11.3836 12.5C11.3044 12.8067 11.1255 13.0784 10.8751 13.2724C10.6246 13.4663 10.3168 13.5715 10 13.5714ZM5.00003 12.5H5.83503C5.43568 12.1887 5.07204 11.8342 4.75075 11.4429C4.22912 11.504 3.74809 11.7545 3.39901 12.1469C3.04993 12.5393 2.85711 13.0462 2.85718 13.5714V14.0821C2.85718 16.7379 5.86432 18.5714 10 18.5714C14.1357 18.5714 17.1429 16.6371 17.1429 14.0821V13.5714C17.1429 13.0031 16.9171 12.4581 16.5153 12.0562C16.1134 11.6543 15.5684 11.4286 15 11.4286H12.3965C12.5 11.7758 12.5268 12.1414 12.475 12.5H15L15.1036 12.505C15.3686 12.5307 15.6145 12.6542 15.7934 12.8514C15.9724 13.0485 16.0715 13.3052 16.0715 13.5714V14.0821L16.0679 14.1971C15.9679 15.9971 13.5186 17.5 10 17.5C6.34932 17.5 3.92861 15.9921 3.92861 14.0821V13.5714L3.93361 13.4679C3.95934 13.2029 4.08281 12.957 4.27996 12.778C4.4771 12.5991 4.7338 12.5 5.00003 12.5ZM13.5715 7.14286C13.5716 7.78984 13.3959 8.42471 13.0633 8.97964C12.7307 9.53457 12.2535 9.98872 11.6829 10.2936C11.2225 9.87475 10.6224 9.64272 10 9.64286C10.3283 9.64286 10.6534 9.5782 10.9567 9.45256C11.2601 9.32692 11.5357 9.14277 11.7678 8.91063C11.9999 8.67848 12.1841 8.40288 12.3097 8.09957C12.4354 7.79626 12.5 7.47117 12.5 7.14286C12.5 6.81456 12.4354 6.48947 12.3097 6.18615C12.1841 5.88284 11.9999 5.60724 11.7678 5.37509C11.5357 5.14295 11.2601 4.9588 10.9567 4.83316C10.6534 4.70753 10.3283 4.64286 10 4.64286C9.33699 4.64286 8.70111 4.90625 8.23227 5.37509C7.76343 5.84393 7.50003 6.47982 7.50003 7.14286C7.50003 7.8059 7.76343 8.44179 8.23227 8.91063C8.70111 9.37947 9.33699 9.64286 10 9.64286C9.35146 9.64286 8.76146 9.89 8.31789 10.2943C7.74753 9.98967 7.27056 9.53591 6.93789 8.98143C6.65465 8.50956 6.4843 7.97861 6.44013 7.43003C6.39596 6.88145 6.47916 6.33009 6.68326 5.81897C6.88735 5.30786 7.2068 4.85083 7.61668 4.48356C8.02656 4.11629 8.51577 3.84871 9.04613 3.70171C9.57649 3.55472 10.1336 3.53228 10.6741 3.63616C11.2146 3.74003 11.7237 3.96741 12.1618 4.30053C12.5999 4.63366 12.9551 5.06352 13.1996 5.55657C13.4441 6.04962 13.5714 6.59251 13.5715 7.14286Z" fill="white"/>
</svg>
