<svg width="20" height="20" viewBox="0 0 20 20" fill="none" xmlns="http://www.w3.org/2000/svg">
<path d="M9.99996 16C7.91663 16 6.07496 14.9334 4.99996 13.3334C5.02496 11.6667 8.33329 10.75 9.99996 10.75C11.6666 10.75 14.975 11.6667 15 13.3334C14.4491 14.1538 13.705 14.8262 12.833 15.2912C11.9611 15.7562 10.9882 15.9997 9.99996 16ZM9.99996 4.16669C10.663 4.16669 11.2989 4.43008 11.7677 4.89892C12.2366 5.36776 12.5 6.00365 12.5 6.66669C12.5 7.32973 12.2366 7.96561 11.7677 8.43445C11.2989 8.9033 10.663 9.16669 9.99996 9.16669C9.33692 9.16669 8.70103 8.9033 8.23219 8.43445C7.76335 7.96561 7.49996 7.32973 7.49996 6.66669C7.49996 6.00365 7.76335 5.36776 8.23219 4.89892C8.70103 4.43008 9.33692 4.16669 9.99996 4.16669ZM9.99996 1.66669C8.90561 1.66669 7.82198 1.88224 6.81093 2.30102C5.79988 2.71981 4.88122 3.33364 4.1074 4.10746C2.5446 5.67027 1.66663 7.78988 1.66663 10C1.66663 12.2102 2.5446 14.3298 4.1074 15.8926C4.88122 16.6664 5.79988 17.2802 6.81093 17.699C7.82198 18.1178 8.90561 18.3334 9.99996 18.3334C12.2101 18.3334 14.3297 17.4554 15.8925 15.8926C17.4553 14.3298 18.3333 12.2102 18.3333 10C18.3333 5.39169 14.5833 1.66669 9.99996 1.66669Z" fill="white"/>
</svg>
