<svg width="20" height="21" viewBox="0 0 20 21" fill="none" xmlns="http://www.w3.org/2000/svg">
<path d="M18.3334 18.8333H1.66675M1.66675 9.66667L8.43841 4.25C8.88169 3.89541 9.43243 3.70223 10.0001 3.70223C10.5677 3.70223 11.1185 3.89541 11.5617 4.25L18.3334 9.66667M12.9167 5.08333V3.41667C12.9167 3.30616 12.9606 3.20018 13.0388 3.12204C13.1169 3.0439 13.2229 3 13.3334 3H15.4167C15.5273 3 15.6332 3.0439 15.7114 3.12204C15.7895 3.20018 15.8334 3.30616 15.8334 3.41667V7.58333M3.33341 18.8333V8.41667M16.6667 18.8333V8.41667" stroke="#F44A51" stroke-width="1.2" stroke-linecap="round"/>
<path d="M12.5 18.8333V14.6667C12.5 13.4883 12.5 12.8992 12.1333 12.5333C11.7683 12.1667 11.1792 12.1667 10 12.1667C8.82083 12.1667 8.2325 12.1667 7.86667 12.5333C7.5 12.8983 7.5 13.4875 7.5 14.6667V18.8333M11.6667 8.41667C11.6667 8.85869 11.4911 9.28262 11.1785 9.59518C10.866 9.90774 10.442 10.0833 10 10.0833C9.55797 10.0833 9.13405 9.90774 8.82149 9.59518C8.50893 9.28262 8.33333 8.85869 8.33333 8.41667C8.33333 7.97464 8.50893 7.55072 8.82149 7.23816C9.13405 6.9256 9.55797 6.75 10 6.75C10.442 6.75 10.866 6.9256 11.1785 7.23816C11.4911 7.55072 11.6667 7.97464 11.6667 8.41667Z" stroke="#F44A51" stroke-width="1.2"/>
</svg>
