<svg width="24" height="25" viewBox="0 0 24 25" fill="none" xmlns="http://www.w3.org/2000/svg">
<path d="M18.251 2.998C19.0811 2.99794 19.8798 3.31555 20.4832 3.88567C21.0866 4.45579 21.449 5.23519 21.496 6.064L21.501 6.248V18.252C21.501 19.114 21.1586 19.9406 20.5491 20.5501C19.9396 21.1596 19.113 21.502 18.251 21.502H6.251C5.42069 21.5023 4.62175 21.1848 4.01813 20.6147C3.41452 20.0445 3.05201 19.265 3.005 18.436L3 18.252V6.248C3 5.38605 3.34241 4.5594 3.9519 3.9499C4.5614 3.34041 5.38805 2.998 6.25 2.998H18.251ZM11.5 9.998L4.5 9.999V18.252L4.507 18.412C4.54691 18.8467 4.74781 19.2507 5.07028 19.5449C5.39275 19.839 5.81351 20.0021 6.25 20.002L11.5 20.001V9.998ZM20 15.998L13 15.999V20.001H18.25C18.7141 20.001 19.1592 19.8166 19.4874 19.4884C19.8156 19.1602 20 18.7151 20 18.251V15.998ZM18.251 4.498L13 4.497V14.5L20 14.499L20.001 6.249L19.994 6.089C19.9541 5.65434 19.7532 5.25028 19.4307 4.95612C19.1082 4.66195 18.6875 4.49792 18.251 4.498ZM11.5 4.497L6.25 4.498L6.107 4.504C5.6693 4.54014 5.26119 4.73953 4.96368 5.06261C4.66617 5.38568 4.50102 5.80881 4.501 6.248L4.5 8.5H11.5V4.497Z" fill="#F44A51"/>
</svg>
