<svg width="20" height="20" viewBox="0 0 20 20" fill="none" xmlns="http://www.w3.org/2000/svg">
<path d="M5.83325 11.6667L7.74409 9.75584C7.90036 9.59962 8.11228 9.51185 8.33325 9.51185C8.55422 9.51185 8.76615 9.59962 8.92242 9.75584L10.2441 11.0775C10.4004 11.2337 10.6123 11.3215 10.8333 11.3215C11.0542 11.3215 11.2661 11.2337 11.4224 11.0775L14.1666 8.33334M14.1666 8.33334V10.4167M14.1666 8.33334H12.0833" stroke="white" stroke-width="1.2" stroke-linecap="round" stroke-linejoin="round"/>
<path d="M18.3333 10C18.3333 13.9283 18.3333 15.8925 17.1125 17.1125C15.8933 18.3333 13.9283 18.3333 9.99996 18.3333C6.07163 18.3333 4.10746 18.3333 2.88663 17.1125C1.66663 15.8933 1.66663 13.9283 1.66663 10C1.66663 6.07167 1.66663 4.10751 2.88663 2.88667C4.10829 1.66667 6.07163 1.66667 9.99996 1.66667C13.9283 1.66667 15.8925 1.66667 17.1125 2.88667C17.9241 3.69834 18.1958 4.83917 18.2875 6.66667" stroke="white" stroke-width="1.2" stroke-linecap="round"/>
</svg>
