<svg width="20" height="20" viewBox="0 0 20 20" fill="none" xmlns="http://www.w3.org/2000/svg">
<path d="M7.3999 17.7083H15.6249C16.1774 17.7083 16.7073 17.4888 17.098 17.0981C17.4887 16.7074 17.7082 16.1775 17.7082 15.625V12.6C17.7038 12.0504 17.4824 11.5247 17.0922 11.1376C16.702 10.7505 16.1746 10.5333 15.6249 10.5333H14.5666M9.48324 15.6083L14.5666 10.5167L16.1249 8.95834C16.3187 8.76553 16.4724 8.53633 16.5773 8.28392C16.6822 8.03151 16.7363 7.76085 16.7363 7.48751C16.7363 7.21416 16.6822 6.9435 16.5773 6.69109C16.4724 6.43868 16.3187 6.20948 16.1249 6.01667L13.9832 3.87501C13.7904 3.68125 13.5612 3.52749 13.3088 3.42258C13.0564 3.31767 12.7858 3.26366 12.5124 3.26366C12.2391 3.26366 11.9684 3.31767 11.716 3.42258C11.4636 3.52749 11.2344 3.68125 11.0416 3.87501L9.48324 5.43334" stroke="white" stroke-width="1.2" stroke-linecap="round" stroke-linejoin="round"/>
<path d="M7.39996 2.29167H4.37496C3.82242 2.29167 3.29252 2.51117 2.90182 2.90187C2.51112 3.29257 2.29163 3.82247 2.29163 4.37501V15.625C2.29163 16.1775 2.51112 16.7074 2.90182 17.0981C3.29252 17.4888 3.82242 17.7083 4.37496 17.7083H7.39996C7.95249 17.7083 8.4824 17.4888 8.8731 17.0981C9.2638 16.7074 9.48329 16.1775 9.48329 15.625V4.37501C9.48329 3.82247 9.2638 3.29257 8.8731 2.90187C8.4824 2.51117 7.95249 2.29167 7.39996 2.29167Z" stroke="white" stroke-width="1.2" stroke-linecap="round" stroke-linejoin="round"/>
<path d="M5.88742 15.495C6.06185 15.495 6.23459 15.4606 6.39575 15.3939C6.55691 15.3271 6.70334 15.2293 6.82669 15.1059C6.95004 14.9826 7.04788 14.8362 7.11464 14.675C7.18139 14.5138 7.21575 14.3411 7.21575 14.1667C7.21575 13.9922 7.18139 13.8195 7.11464 13.6583C7.04788 13.4972 6.95004 13.3507 6.82669 13.2274C6.70334 13.104 6.55691 13.0062 6.39575 12.9394C6.23459 12.8727 6.06185 12.8383 5.88742 12.8383C5.53512 12.8383 5.19725 12.9783 4.94814 13.2274C4.69903 13.4765 4.55908 13.8144 4.55908 14.1667C4.55908 14.519 4.69903 14.8568 4.94814 15.1059C5.19725 15.3551 5.53512 15.495 5.88742 15.495Z" stroke="white" stroke-width="1.2" stroke-linecap="round" stroke-linejoin="round"/>
</svg>
