<svg width="20" height="20" viewBox="0 0 20 20" fill="none" xmlns="http://www.w3.org/2000/svg">
<path d="M12.5 4.16666V5.83332M12.5 9.16666V10.8333M12.5 14.1667V15.8333M4.16667 4.16666C3.72464 4.16666 3.30072 4.34225 2.98816 4.65481C2.67559 4.96737 2.5 5.3913 2.5 5.83332V8.33332C2.94203 8.33332 3.36595 8.50892 3.67851 8.82148C3.99107 9.13404 4.16667 9.55796 4.16667 9.99999C4.16667 10.442 3.99107 10.8659 3.67851 11.1785C3.36595 11.4911 2.94203 11.6667 2.5 11.6667V14.1667C2.5 14.6087 2.67559 15.0326 2.98816 15.3452C3.30072 15.6577 3.72464 15.8333 4.16667 15.8333H15.8333C16.2754 15.8333 16.6993 15.6577 17.0118 15.3452C17.3244 15.0326 17.5 14.6087 17.5 14.1667V11.6667C17.058 11.6667 16.634 11.4911 16.3215 11.1785C16.0089 10.8659 15.8333 10.442 15.8333 9.99999C15.8333 9.55796 16.0089 9.13404 16.3215 8.82148C16.634 8.50892 17.058 8.33332 17.5 8.33332V5.83332C17.5 5.3913 17.3244 4.96737 17.0118 4.65481C16.6993 4.34225 16.2754 4.16666 15.8333 4.16666H4.16667Z" stroke="white" stroke-width="1.2" stroke-linecap="round" stroke-linejoin="round"/>
</svg>
