<svg width="134" height="50" viewBox="0 0 134 50" fill="none" xmlns="http://www.w3.org/2000/svg">
<path d="M55.9697 8.98269L48.8672 23.9074H51.9335L53.2163 21.0914H58.4415L59.6618 23.9074H63.26L56.1574 8.9514H55.9697V8.98269ZM54.2801 18.7134L55.8758 15.2091L57.3777 18.7134H54.2801Z" fill="white"/>
<path d="M76.2421 9.54532H72.5501L69.1709 17.6491L65.5727 9.54532H61.8494L69.0457 24.5951L76.2421 9.54532Z" fill="white"/>
<path d="M89.4475 23.9074L82.345 8.9514H82.1886L75.0861 23.9074H78.1523L79.4352 21.0914H84.6604L85.8806 23.9074H89.4475ZM80.4677 18.7134L82.0634 15.2091L83.5966 18.7134H80.4677Z" fill="white"/>
<path d="M102.87 18.2129L91.8566 8.98271H91.7314V23.9074H94.8916L94.829 15.4282L105.843 24.5019H105.936V9.54591H102.808L102.87 18.2129Z" fill="white"/>
<path d="M112.633 23.9068H115.73V12.2674H119.579V9.54532H108.941V12.2674H112.633V23.9068Z" fill="white"/>
<path d="M125.682 21.1847V18.0871H132.44V15.3337H125.682V12.2674H133.316V9.54532H122.553V23.9068H133.629V21.1847H125.682Z" fill="white"/>
<path d="M59.6618 32.8557H52.1525V26.6918H48.8672V41.9607H52.1525V35.7655H59.6618V41.9607H62.9471V26.6918H59.6618V32.8557Z" fill="white"/>
<path d="M80.8447 28.8506C80.0625 28.131 79.1238 27.5678 78.0913 27.1297C77.0588 26.723 75.9637 26.504 74.7747 26.504C73.5857 26.504 72.4906 26.723 71.4581 27.1297C70.4256 27.5365 69.5182 28.131 68.736 28.8506C67.9538 29.5702 67.328 30.415 66.89 31.3537C66.4519 32.2924 66.2329 33.2936 66.2329 34.3574C66.2329 35.4212 66.4519 36.4537 66.89 37.3924C67.328 38.3311 67.9538 39.1759 68.736 39.8642C69.5182 40.5838 70.4256 41.147 71.4581 41.5225C72.4906 41.9293 73.5857 42.117 74.7747 42.117C75.9324 42.117 77.0588 41.9293 78.0913 41.5225C79.1238 41.1157 80.0312 40.5526 80.8447 39.8642C81.6269 39.1446 82.2527 38.3311 82.722 37.3924C83.1601 36.4537 83.3791 35.4525 83.3791 34.3574C83.3791 33.2936 83.1601 32.3236 82.722 31.3537C82.2527 30.415 81.6269 29.5702 80.8447 28.8506ZM79.5619 36.2347C79.3116 36.8292 78.9361 37.3298 78.498 37.7992C78.0287 38.2372 77.4968 38.6127 76.9023 38.8317C76.2766 39.082 75.6195 39.2071 74.8999 39.2071C74.1489 39.2071 73.4606 39.082 72.8348 38.8317C72.209 38.5814 71.6458 38.2372 71.1765 37.7992C70.7072 37.3611 70.3317 36.8292 70.0501 36.2347C69.7998 35.6402 69.6434 35.0145 69.6434 34.3261C69.6434 33.6378 69.7685 32.9807 70.0188 32.3862C70.2691 31.7917 70.6446 31.2598 71.1139 30.8218C71.5833 30.3838 72.1152 30.0083 72.7409 29.758C73.3667 29.5077 74.0238 29.3825 74.7747 29.3825C75.4943 29.3825 76.1827 29.5077 76.8085 29.758C77.4342 30.0083 77.9661 30.3525 78.4355 30.8218C78.9048 31.2598 79.249 31.7917 79.5306 32.3862C79.7809 32.9807 79.9373 33.6378 79.9373 34.3261C79.9686 35.0145 79.8435 35.6715 79.5619 36.2347Z" fill="white"/>
<path d="M95.2053 37.0489L86.6947 26.0666H86.6635V41.9612H89.8549V35.1403L95.1114 41.7735H95.174L100.618 34.671V41.9612H103.935V26.0666H103.872L95.2053 37.0489Z" fill="white"/>
<path d="M111.568 35.7655H118.765V32.8557H111.568V29.6017H119.672V26.6918H108.252V41.9607H120.016V39.0508H111.568V35.7655Z" fill="white"/>
<path d="M126.87 29.6642C127.277 29.4138 127.84 29.2574 128.56 29.2574C129.123 29.2574 129.749 29.3513 130.406 29.5703C131.063 29.7893 131.72 30.0396 132.346 30.3525L133.597 28.0372C132.94 27.6304 132.19 27.2862 131.345 27.0046C130.5 26.723 129.405 26.5666 128.059 26.5666C127.027 26.5979 126.12 26.8169 125.337 27.1924C124.555 27.5678 123.929 28.0997 123.491 28.7255C123.053 29.3826 122.834 30.1335 122.834 31.0409C122.834 31.7605 122.991 32.3863 123.272 32.8869C123.554 33.3875 123.961 33.8255 124.43 34.1384C124.899 34.4826 125.431 34.7642 125.963 35.0145C126.495 35.2648 127.027 35.4526 127.559 35.6403C127.997 35.7967 128.404 35.9845 128.779 36.1722C129.155 36.3912 129.436 36.6102 129.655 36.8605C129.874 37.1108 129.999 37.3924 129.999 37.7053C129.999 38.1434 129.874 38.4875 129.593 38.7379C129.342 38.9882 128.998 39.1759 128.591 39.2698C128.185 39.3636 127.778 39.4262 127.402 39.4262C126.996 39.4262 126.589 39.3636 126.12 39.2698C125.65 39.1446 125.181 38.9882 124.712 38.8004C124.242 38.6127 123.804 38.3624 123.429 38.1121L121.958 40.4587C122.553 40.8342 123.178 41.1471 123.804 41.3974C124.43 41.6477 125.087 41.8041 125.744 41.9293C126.401 42.0544 127.058 42.117 127.684 42.117C128.935 42.117 129.968 41.898 130.813 41.4913C131.658 41.0845 132.315 40.5526 132.753 39.8955C133.191 39.2385 133.41 38.5188 133.41 37.7366C133.41 37.017 133.285 36.3912 133.066 35.8906C132.847 35.39 132.534 34.9519 132.158 34.639C131.783 34.2949 131.345 34.0133 130.875 33.7943C130.406 33.5752 129.905 33.3562 129.436 33.1998C128.904 33.012 128.404 32.8243 127.903 32.6053C127.402 32.3863 126.996 32.136 126.683 31.8544C126.37 31.5728 126.213 31.2599 126.213 30.8844C126.276 30.3212 126.464 29.9458 126.87 29.6642Z" fill="white"/>
<path d="M6.84759 24.9056L22.6483 15.3V7.63431L0.37085 21.3387V42.3647H12.417V35.8566H6.84759V24.9056Z" fill="white"/>
<path d="M37.9486 17.3339L22.6484 7.66571V0L44.4253 13.767V42.4586H32.9737V35.9819H37.9486V17.3339Z" fill="white"/>
<path d="M22.6801 21.8097L12.3549 28.3177V35.8583L12.4174 35.9521L22.6801 29.4754L32.9428 35.9521L32.9741 35.9208V28.3177L22.6801 21.8097Z" fill="#F44A51"/>
<path d="M22.6803 35.8263L12.3551 42.3656V49.9061L12.4177 50L22.6803 43.5233L32.943 50L32.9743 49.9374V42.3343L22.6803 35.8263Z" fill="#F5C200"/>
</svg>
